# xmcd CD database file
#
# Track frame offsets:
#	182
#	15385
#	28867
#	42740
#	54660
#	77710
#	93097
#	110065
#	126197
#	136620
#	152437
#	167380
#	183840
#	204932
#	235415
#	252200
#
# Disc length: 3528 seconds
#
# Revision: 0
# Processed by: cddbd v1.4b41PL1 Copyright (c) Steve Scherf et al.
# Submitted via: Feurio! 1.61.1ß - http://www.feurio.com
#
DISCID=c40dc610
DTITLE=Jean-Pierre Bertrand and Gerard Marmet - From Black to White
DYEAR=1900
DGENRE=
TTITLE0=Take Wing With Swing
TTITLE1=Old Time Shuffle
TTITLE2=From Black To White
TTITLE3=Deeply In My Heart
TTITLE4=Saint Louis Blues
TTITLE5=Chicago Session
TTITLE6=Rifflin' And Shufflin'
TTITLE7=On The Sunny Side Of The Street
TTITLE8=Boogie Woogie At The White Cafe
TTITLE9=Farewell To A Stride Man
TTITLE10=Rock House
TTITLE11=Rollin' In A Country Style
TTITLE12=Gee Baby' Ain't I Good To You
TTITLE13=Tribue To Albert Ammons And Jo Jones
TTITLE14=Swanee River
TTITLE15=Rejane Boogie
EXTD=
EXTT0=
EXTT1=
EXTT2=
EXTT3=
EXTT4=
EXTT5=
EXTT6=
EXTT7=
EXTT8=
EXTT9=
EXTT10=
EXTT11=
EXTT12=
EXTT13=
EXTT14=
EXTT15=
PLAYORDER=
